<?xml version="1.0" encoding="utf-8"?>
<!-- Generator: Adobe Illustrator 21.0.0, SVG Export Plug-In . SVG Version: 6.00 Build 0)  -->
<svg version="1.1" xmlns="http://www.w3.org/2000/svg" xmlns:xlink="http://www.w3.org/1999/xlink" x="0px" y="0px"
	 viewBox="0 0 285 183" style="enable-background:new 0 0 285 183;" xml:space="preserve">
<style type="text/css">
	.st0{fill:#3D597C;}
	.st1{fill:#FFFFFF;stroke:#FFFFFF;stroke-width:10;stroke-linecap:round;stroke-linejoin:round;stroke-miterlimit:10;}
</style>
<g id="Layer_2">
	<path class="st0" d="M208.5,43c-3.3,0-6.6,0.3-9.9,0.7C183.4,21,157.4,6,128,6C87.8,6,54.1,34,45.3,71.6C22.1,77.3,5,98.1,5,123
		c0,26.2,19,47.9,44,52.2v0.8h156v-0.1c1.2,0.1,2.3,0.1,3.5,0.1c36.7,0,66.5-29.8,66.5-66.5S245.2,43,208.5,43z"/>
</g>
<g id="Layer_1">
	<g>
		<line class="st1" x1="134" y1="133" x2="134" y2="79.8"/>
		<g>
			<path class="st1" d="M133.7,76l-25.5,25.5L133.7,76z"/>
			<line class="st1" x1="134.5" y1="76" x2="160" y2="101.5"/>
		</g>
	</g>
</g>
</svg>
